# xmcd
#
# Track frame offsets:
#	150
#	9788
#	24092
#	32708
#	44145
#	56406
#	70358
#	83526
#	95653
#
# Disc length: 1406 seconds
#
# Revision: 0
# Processed by: cddbd v1.5.2PL0 Copyright (c) Steve Scherf et al.
# Submitted via: EasyCDDAExtractor 16.0.1.1
#
DISCID=65057c09
DTITLE=The Harden Trio - Great Country Hits
DYEAR=1970
DGENRE=Country
TTITLE0=Tippy Toeing
TTITLE1=Make The World Go Away
TTITLE2=The Race Is On
TTITLE3=By The Time I Get To Phoenix
TTITLE4=Skip A Rope
TTITLE5=Husbands And Wifes
TTITLE6=What Am I Gonna Tell 'Em Now
TTITLE7=Of My First Love
TTITLE8=Little Boy Walk Like A Man
EXTD=
EXTT0=
EXTT1=
EXTT2=
EXTT3=
EXTT4=
EXTT5=
EXTT6=
EXTT7=
EXTT8=
PLAYORDER=
